<svg width="24" height="26" viewBox="0 0 24 26" fill="none" xmlns="http://www.w3.org/2000/svg">
<g id="mdi:cart-outline">
<path id="Vector" d="M17 19.2857C17.5304 19.2857 18.0391 19.5114 18.4142 19.9133C18.7893 20.3152 19 20.8602 19 21.4285C19 21.9969 18.7893 22.5419 18.4142 22.9438C18.0391 23.3456 17.5304 23.5714 17 23.5714C16.4696 23.5714 15.9609 23.3456 15.5858 22.9438C15.2107 22.5419 15 21.9969 15 21.4285C15 20.2393 15.89 19.2857 17 19.2857ZM1 2.14282H4.27L5.21 4.28568H20C20.2652 4.28568 20.5196 4.39856 20.7071 4.59949C20.8946 4.80043 21 5.07295 21 5.35711C21 5.53925 20.95 5.72139 20.88 5.89282L17.3 12.825C16.96 13.4785 16.3 13.9285 15.55 13.9285H8.1L7.2 15.675L7.17 15.8035C7.17 15.8746 7.19634 15.9427 7.24322 15.9929C7.29011 16.0432 7.3537 16.0714 7.42 16.0714H19V18.2143H7C6.46957 18.2143 5.96086 17.9885 5.58579 17.5866C5.21071 17.1848 5 16.6397 5 16.0714C5 15.6964 5.09 15.3428 5.24 15.0428L6.6 12.4178L3 4.28568H1V2.14282ZM7 19.2857C7.53043 19.2857 8.03914 19.5114 8.41421 19.9133C8.78929 20.3152 9 20.8602 9 21.4285C9 21.9969 8.78929 22.5419 8.41421 22.9438C8.03914 23.3456 7.53043 23.5714 7 23.5714C6.46957 23.5714 5.96086 23.3456 5.58579 22.9438C5.21071 22.5419 5 21.9969 5 21.4285C5 20.2393 5.89 19.2857 7 19.2857ZM16 11.7857L18.78 6.42854H6.14L8.5 11.7857H16Z" fill="#767676"/>
</g>
</svg>
