<svg width="34" height="34" viewBox="0 0 34 34" fill="none" xmlns="http://www.w3.org/2000/svg">
<g id="campaign-svgrepo-com (3) 1">
<path id="secondary-fill" d="M25.5 6.06332V22.27C25.5019 22.5143 25.4685 22.7577 25.4008 22.9925L12.75 19.8333V8.49999L25.4008 5.34082C25.4685 5.57562 25.5019 5.81897 25.5 6.06332Z" fill="#C1F7FF"/>
<path id="tertiary-fill" d="M12.7501 19.8334V28.3334C12.7501 28.7091 12.6008 29.0695 12.3351 29.3351C12.0695 29.6008 11.7091 29.7501 11.3334 29.7501H9.66173C9.3303 29.7568 9.00703 29.647 8.74818 29.4399C8.48933 29.2329 8.31129 28.9416 8.24506 28.6167L6.24756 18.4167C7.26225 19.3119 8.56376 19.8144 9.91673 19.8334H12.7501Z" fill="#B7B7B7"/>
<path id="primary-stroke" d="M12.75 19.8333L25.4008 23.0349L27.9933 23.6866C28.2055 23.7392 28.4269 23.7419 28.6402 23.6947C28.8536 23.6474 29.0531 23.5514 29.2233 23.4143C29.3934 23.2771 29.5294 23.1024 29.6208 22.9039C29.7122 22.7054 29.7564 22.4884 29.75 22.2699V6.06328C29.7498 5.84839 29.7008 5.63637 29.6066 5.44324C29.5124 5.25011 29.3754 5.08095 29.2062 4.94855C29.0369 4.81615 28.8398 4.72399 28.6297 4.67904C28.4195 4.6341 28.2019 4.63754 27.9933 4.68911L25.4008 5.34078L12.75 8.49994M12.75 19.8333V8.49994M12.75 19.8333H9.91667M12.75 19.8333V28.3333C12.75 28.709 12.6007 29.0693 12.3351 29.335C12.0694 29.6007 11.7091 29.7499 11.3333 29.7499H9.69C9.35858 29.7566 9.0353 29.6469 8.77645 29.4398C8.5176 29.2327 8.33956 28.9414 8.27333 28.6166L6.2475 18.4874C7.27226 19.357 8.57271 19.834 9.91667 19.8333M12.75 8.49994H9.91667C8.41377 8.49994 6.97243 9.09697 5.90973 10.1597C4.84702 11.2224 4.25 12.6637 4.25 14.1666C4.25982 14.9766 4.44321 15.7751 4.78778 16.5083C5.13236 17.2414 5.63012 17.8921 6.2475 18.4166C7.26219 19.3118 8.5637 19.8143 9.91667 19.8333" stroke="#075C68" stroke-linecap="round" stroke-linejoin="round"/>
</g>
</svg>
