<svg width="28" height="28" viewBox="0 0 28 28" fill="none" xmlns="http://www.w3.org/2000/svg">
<g id="category-svgrepo-com 1">
<path id="Vector" d="M8.44671 2.33325H6.23004C3.67504 2.33325 2.33337 3.67492 2.33337 6.21825V8.43492C2.33337 10.9783 3.67504 12.3199 6.21837 12.3199H8.43504C10.9784 12.3199 12.32 10.9783 12.32 8.43492V6.21825C12.3317 3.67492 10.99 2.33325 8.44671 2.33325Z" fill="#C1F7FF"/>
<path id="Vector_2" opacity="0.4" d="M19.5644 2.83325H21.7811C22.9689 2.83325 23.7938 3.1456 24.3238 3.67556C24.8538 4.20552 25.1661 5.03045 25.1661 6.21825V8.43492C25.1661 9.62272 24.8538 10.4477 24.3238 10.9776C23.7938 11.5076 22.9689 11.8199 21.7811 11.8199H19.5644C18.3766 11.8199 17.5517 11.5076 17.0217 10.9776C16.4918 10.4477 16.1794 9.62272 16.1794 8.43492V6.21825C16.1794 5.03045 16.4918 4.20552 17.0217 3.67556C17.5517 3.1456 18.3766 2.83325 19.5644 2.83325Z" stroke="#00373F"/>
<path id="Vector_3" d="M21.7811 15.6685H19.5644C17.0211 15.6685 15.6794 17.0101 15.6794 19.5535V21.7701C15.6794 24.3135 17.0211 25.6551 19.5644 25.6551H21.7811C24.3244 25.6551 25.6661 24.3135 25.6661 21.7701V19.5535C25.6661 17.0101 24.3244 15.6685 21.7811 15.6685Z" fill="#C1F7FF"/>
<path id="Vector_4" opacity="0.4" d="M11.82 19.5628V19.5651V21.7818C11.82 22.9696 11.5077 23.7945 10.9777 24.3245C10.4478 24.8544 9.62284 25.1668 8.43504 25.1668H6.21837C5.03058 25.1668 4.20593 24.8545 3.67607 24.3234C3.14603 23.7922 2.83337 22.9643 2.83337 21.7701V19.5535C2.83337 18.3657 3.1457 17.541 3.67674 17.0112C4.20796 16.4811 5.03582 16.1685 6.23004 16.1685H8.44671C9.63468 16.1685 10.459 16.4809 10.9872 17.0114C11.5153 17.542 11.8255 18.369 11.82 19.5628Z" stroke="#00373F"/>
</g>
</svg>
