<svg width="18" height="18" viewBox="0 0 18 18" fill="none" xmlns="http://www.w3.org/2000/svg">
<g id="ep:arrow-down-bold">
<path id="Vector" d="M1.84013 5.95463C2.0511 5.74372 2.33719 5.62524 2.6355 5.62524C2.93381 5.62524 3.21991 5.74372 3.43088 5.95463L8.99963 11.5234L14.5684 5.95463C14.7806 5.7497 15.0647 5.63631 15.3597 5.63887C15.6547 5.64143 15.9368 5.75975 16.1454 5.96833C16.354 6.17692 16.4723 6.45908 16.4749 6.75405C16.4774 7.04902 16.3641 7.3332 16.1591 7.54538L9.795 13.9095C9.58403 14.1204 9.29794 14.2389 8.99963 14.2389C8.70132 14.2389 8.41522 14.1204 8.20425 13.9095L1.84013 7.54538C1.62922 7.33441 1.51074 7.04831 1.51074 6.75C1.51074 6.45169 1.62922 6.1656 1.84013 5.95463Z" fill="#444444"/>
</g>
</svg>
