<svg width="36" height="36" viewBox="0 0 36 36" fill="none" xmlns="http://www.w3.org/2000/svg">
<g id="fast-delivery-fast-svgrepo-com 1">
<path id="Vector" d="M27.3382 7.17773H6.75205C6.42004 7.17773 6.10328 7.44696 6.04478 7.77898L3.81841 20.405H5.62213C6.28623 20.405 6.72969 20.9433 6.61262 21.6075C6.49555 22.2716 5.86218 22.81 5.19815 22.81H3.39442L3.0764 24.6137C3.01783 24.9457 3.23959 25.2149 3.57161 25.2149H24.759L27.8334 7.77891C27.8921 7.44689 27.6702 7.17773 27.3382 7.17773Z" fill="#C1F7FF"/>
<path id="Vector_2" d="M32.3253 9.58276H27.5154L27.0913 11.9877H33.705L33.811 11.3865C33.9866 10.3903 33.3214 9.58276 32.3253 9.58276Z" fill="#C7CFE2"/>
<path id="Vector_3" d="M33.4582 16.7977L33.1038 11.9878H27.0914L26.2433 16.7977H33.4582Z" fill="#B4E6FF"/>
<path id="Vector_4" d="M33.034 19.2026H35.439L35.0149 21.6076H33.8125C33.1483 21.6076 32.7049 21.0693 32.822 20.4051L33.034 19.2026Z" fill="#F1F4FB"/>
<path id="Vector_5" d="M29.7098 21.0063C27.8977 21.0063 26.1444 22.0094 25.0633 23.4896L24.759 25.215H33.7361C33.8578 22.843 32.1622 21.0063 29.7098 21.0063Z" fill="#959CB5"/>
<path id="Vector_6" d="M32.9485 22.5291L32.4749 25.2151H33.736C33.7891 24.1823 33.4971 23.2514 32.9485 22.5291Z" fill="#AFB9D2"/>
<path id="Vector_7" d="M31.8679 25.8163C31.5752 27.4765 29.9919 28.8225 28.3316 28.8225C26.6713 28.8225 25.5628 27.4766 25.8555 25.8163C26.1482 24.1561 27.7315 22.8101 29.3918 22.8101C31.0521 22.8101 32.1607 24.1561 31.8679 25.8163Z" fill="#FEFEFE"/>
<path id="Vector_8" d="M29.1782 13.7915H33.2366L33.1037 11.9878H27.0913L26.2432 16.7977H28.0469L28.4709 14.3928C28.5296 14.0607 28.8462 13.7915 29.1782 13.7915Z" fill="#9BD6FF"/>
<path id="Vector_9" d="M10.9274 21.0063C9.40916 21.0063 7.93302 21.7114 6.85787 22.8101H5.19815H3.39442L3.0764 24.6138C3.01783 24.9458 3.23959 25.215 3.57161 25.215H24.759L25.1831 22.8101H14.3606C13.673 21.7115 12.4455 21.0063 10.9274 21.0063Z" fill="#F5F5F5"/>
<path id="Vector_10" d="M13.0854 25.8163C12.7927 27.4765 11.2094 28.8225 9.54912 28.8225C7.88883 28.8225 6.78029 27.4766 7.073 25.8163C7.36571 24.1561 8.94901 22.8101 10.6093 22.8101C12.2696 22.8101 13.3781 24.1561 13.0854 25.8163Z" fill="#FEFEFE"/>
<path id="Vector_11" d="M35.4145 17.1267C35.0402 16.6807 34.5297 16.3908 33.9444 16.2824L33.6695 12.5512C33.9407 12.5486 34.1719 12.3533 34.2192 12.0856L34.3252 11.4843C34.4389 10.8399 34.2804 10.2037 33.8903 9.73891C33.5008 9.27471 32.9305 9.01898 32.2844 9.01898H28.1462L28.3477 7.87676C28.4048 7.55233 28.322 7.2284 28.1205 6.98822C27.921 6.75042 27.6209 6.61401 27.2974 6.61401H6.92747C6.3251 6.61401 5.77062 7.08265 5.66508 7.68108L3.8629 17.9023C3.80883 18.2088 4.01358 18.5012 4.32014 18.5552C4.35319 18.561 4.38609 18.5638 4.41865 18.5638C4.68703 18.5638 4.9249 18.3714 4.97306 18.0979L6.77531 7.87683C6.7872 7.80954 6.87382 7.74133 6.9274 7.74133L27.2268 7.7414L25.4351 17.9023C25.3811 18.2088 25.5857 18.5012 25.8924 18.5552C26.1986 18.6091 26.4913 18.4045 26.5453 18.0979L26.6752 17.3611H33.4158C33.416 17.3611 33.4163 17.3611 33.4166 17.3611C33.4169 17.3611 33.4171 17.3611 33.4174 17.3611C33.8832 17.3612 34.2858 17.5352 34.5509 17.8511C34.7334 18.0686 34.8398 18.3393 34.8654 18.6388H32.9931C32.7195 18.6388 32.4855 18.8352 32.438 19.1046L32.226 20.3071C32.1406 20.7915 32.2612 21.2716 32.5569 21.624C32.8486 21.9717 33.2914 22.1711 33.7715 22.1711H34.3022L33.8649 24.6512H32.3767C32.2788 24.1552 32.0644 23.6989 31.7395 23.3118C31.163 22.6247 30.3146 22.2463 29.3508 22.2463C27.8054 22.2463 26.3145 23.2574 25.6165 24.6513H25.3898L26.1213 20.5029C26.1754 20.1964 25.9707 19.904 25.6641 19.85C25.3576 19.7958 25.0651 20.0006 25.0111 20.3072L24.2452 24.6514H13.8106C13.7127 24.1553 13.4983 23.6991 13.1734 23.312C12.5968 22.6248 11.7485 22.2464 10.7847 22.2464C9.23927 22.2464 7.7483 23.2575 7.05031 24.6514L3.81748 24.6513L4.04276 23.3737H6.57605C6.88732 23.3737 7.13974 23.1213 7.13974 22.81C7.13974 22.4987 6.88739 22.2463 6.57605 22.2463H0.563695C0.252422 22.2463 0 22.4987 0 22.81C0 23.1213 0.252352 23.3737 0.563695 23.3737H2.89814L2.6967 24.5159C2.63953 24.8404 2.72229 25.1643 2.92388 25.4045C3.12342 25.6423 3.42345 25.7787 3.74702 25.7787H6.68426C6.53147 26.7348 6.76111 27.6356 7.33592 28.3205C7.91248 29.0077 8.7608 29.3861 9.72464 29.3861C11.643 29.3861 13.4784 27.8286 13.816 25.914C13.8239 25.8687 13.8302 25.8236 13.8365 25.7786H25.2504C25.0976 26.7347 25.3272 27.6355 25.9021 28.3205C26.4786 29.0076 27.327 29.386 28.2908 29.386C30.2092 29.386 32.0446 27.8285 32.3821 25.914C32.3901 25.8686 32.3963 25.8235 32.4027 25.7785H34.338C34.6116 25.7785 34.8456 25.5821 34.8931 25.3127L35.9533 19.3003C36.0972 18.4842 35.9059 17.7123 35.4145 17.1267ZM27.5235 12.5514H32.5393L32.8106 16.234H26.8741L27.5235 12.5514ZM32.2845 10.1464C32.5915 10.1464 32.8552 10.2591 33.0268 10.4636C33.2046 10.6755 33.2715 10.9685 33.2149 11.2887L33.191 11.4241H27.7221L27.9474 10.1464H32.2845ZM12.7058 25.7185C12.4589 27.1193 11.1215 28.2589 9.72464 28.2589C9.09984 28.2589 8.55816 28.0235 8.19949 27.5961C7.83049 27.1563 7.68987 26.5591 7.80356 25.9143C8.05057 24.5135 9.38791 23.3739 10.7847 23.3739C11.4095 23.3739 11.9512 23.6093 12.3099 24.0367C12.6789 24.4764 12.8195 25.0737 12.7058 25.7185ZM31.2719 25.7185C31.0249 27.1193 29.6876 28.2589 28.2907 28.2589C27.6659 28.2589 27.1242 28.0235 26.7656 27.596C26.3966 27.1562 26.256 26.559 26.3697 25.9142C26.6166 24.5134 27.954 23.3738 29.3508 23.3738C29.9756 23.3738 30.5173 23.6092 30.876 24.0367C31.245 24.4764 31.3856 25.0737 31.2719 25.7185ZM33.7716 21.044C33.6212 21.044 33.4998 20.994 33.4206 20.8997C33.3384 20.8017 33.3084 20.6608 33.3362 20.5031L33.4662 19.7665H34.7264L34.5011 21.0441H33.7716V21.044Z" fill="#096978"/>
<path id="Vector_12" d="M10.3607 24.6514C9.75829 24.6514 9.2038 25.12 9.09827 25.7184C9.0411 26.0429 9.12386 26.3668 9.32545 26.607C9.52499 26.8448 9.82502 26.9812 10.1486 26.9812C10.751 26.9812 11.3054 26.5125 11.411 25.9142C11.4681 25.5897 11.3855 25.2658 11.1839 25.0256C10.9843 24.7878 10.6843 24.6514 10.3607 24.6514Z" fill="white"/>
<path id="Vector_13" d="M28.9269 24.6514C28.3245 24.6514 27.77 25.12 27.6646 25.7184C27.6074 26.0429 27.6901 26.3667 27.8917 26.607C28.0912 26.8448 28.3912 26.9812 28.7148 26.9812C29.3172 26.9812 29.8717 26.5125 29.9772 25.9142C30.0344 25.5897 29.9515 25.2658 29.75 25.0256C29.5504 24.7878 29.2505 24.6514 28.9269 24.6514Z" fill="white"/>
<path id="Vector_14" d="M22.7373 22.2463H15.5947C15.2834 22.2463 15.031 22.4987 15.031 22.81C15.031 23.1214 15.2834 23.3737 15.5947 23.3737H22.7373C23.0485 23.3737 23.301 23.1214 23.301 22.81C23.301 22.4987 23.0485 22.2463 22.7373 22.2463Z" fill="#096978"/>
<path id="Vector_15" d="M2.19028 20.9687H12.5885C12.8998 20.9687 13.1522 20.7163 13.1522 20.405C13.1522 20.0937 12.8999 19.8413 12.5885 19.8413H2.19028C1.87901 19.8413 1.62659 20.0937 1.62659 20.405C1.62659 20.7163 1.87894 20.9687 2.19028 20.9687Z" fill="#096978"/>
<path id="Vector_16" d="M6.61365 18C6.61365 18.3113 6.866 18.5637 7.17734 18.5637H21.1125L19.9499 19.3339C19.6903 19.5058 19.6194 19.8556 19.7913 20.1151C19.8997 20.2789 20.079 20.3675 20.2617 20.3675C20.3685 20.3675 20.4767 20.3372 20.5724 20.2737L23.2954 18.4699C23.4425 18.3726 23.5354 18.212 23.5467 18.036C23.5578 17.86 23.4862 17.6888 23.3527 17.5735L21.2658 15.7698C21.0302 15.5662 20.6743 15.5921 20.4707 15.8277C20.2671 16.0632 20.293 16.4191 20.5286 16.6228L21.4699 17.4364H7.17727C6.866 17.4364 6.61365 17.6888 6.61365 18Z" fill="#075C68"/>
</g>
</svg>
