<svg width="54" height="54" viewBox="0 0 54 54" fill="none" xmlns="http://www.w3.org/2000/svg">
<g id="gridicons:play">
<path id="Vector" d="M27 4.5C22.5499 4.5 18.1998 5.8196 14.4997 8.29193C10.7996 10.7643 7.91568 14.2783 6.21271 18.3896C4.50974 22.501 4.06416 27.025 4.93233 31.3895C5.8005 35.7541 7.94341 39.7632 11.0901 42.9099C14.2368 46.0566 18.2459 48.1995 22.6105 49.0677C26.975 49.9358 31.499 49.4903 35.6104 47.7873C39.7217 46.0843 43.2357 43.2004 45.7081 39.5003C48.1804 35.8002 49.5 31.4501 49.5 27C49.5 24.0453 48.918 21.1194 47.7873 18.3896C46.6566 15.6598 44.9992 13.1794 42.9099 11.0901C40.8206 9.00078 38.3402 7.34344 35.6104 6.21271C32.8806 5.08198 29.9547 4.5 27 4.5ZM22.5 37.125V16.875L36 27L22.5 37.125Z" fill="#FF0000"/>
</g>
</svg>
