<svg width="32" height="32" viewBox="0 0 32 32" fill="none" xmlns="http://www.w3.org/2000/svg">
<g id="order-food-svgrepo-com 1">
<path id="Vector" d="M25.9161 21.0229H5.94207C4.16145 21.0229 2.7179 22.4733 2.7179 24.2624V26.1486H29.1403V24.2624C29.1403 22.4733 27.6964 21.0229 25.9161 21.0229Z" fill="#C1F7FF"/>
<path id="Vector_2" d="M12.0726 21.0229H5.94207C4.16145 21.0229 2.7179 22.4733 2.7179 24.2624V26.1486H8.84838V24.2624C8.84838 22.4733 10.2919 21.0229 12.0726 21.0229Z" fill="#C1F7FF"/>
<path id="Vector_3" d="M26.7328 21.0228C26.7328 15.0274 21.8959 10.167 15.9289 10.167C9.96234 10.167 5.12537 15.0271 5.12537 21.0228" fill="#C1F7FF"/>
<path id="Vector_4" d="M17.7181 10.3165C17.1268 10.2174 16.5284 10.1675 15.9289 10.1675C9.96234 10.1675 5.12537 15.0276 5.12537 21.0233H8.70332C8.70332 15.6398 12.6027 11.173 17.7181 10.3165Z" fill="#C1F7FF"/>
<path id="Vector_5" d="M13.9779 6.6024C13.9779 6.85979 14.0283 7.11467 14.1263 7.35247C14.2244 7.59028 14.3681 7.80636 14.5492 7.98837C14.7304 8.17038 14.9455 8.31476 15.1822 8.41327C15.4189 8.51177 15.6726 8.56247 15.9288 8.56247C16.1851 8.56247 16.4388 8.51177 16.6755 8.41327C16.9122 8.31476 17.1273 8.17038 17.3084 7.98837C17.4896 7.80636 17.6333 7.59028 17.7313 7.35247C17.8294 7.11467 17.8798 6.85979 17.8798 6.6024C17.8798 6.34502 17.8294 6.09014 17.7313 5.85234C17.6333 5.61453 17.4896 5.39845 17.3084 5.21644C17.1273 5.03443 16.9122 4.89005 16.6755 4.79154C16.4388 4.69303 16.1851 4.64233 15.9288 4.64233C15.6726 4.64233 15.4189 4.69303 15.1822 4.79154C14.9455 4.89005 14.7304 5.03443 14.5492 5.21644C14.3681 5.39845 14.2244 5.61453 14.1263 5.85234C14.0283 6.09014 13.9779 6.34502 13.9779 6.6024Z" fill="#C1F7FF"/>
<path id="Vector_6" d="M15.5107 6.60265C15.5102 6.21928 15.6221 5.84417 15.8327 5.52377C16.0432 5.20336 16.343 4.95172 16.6951 4.79998C16.453 4.69594 16.1923 4.64246 15.9288 4.64282C14.8515 4.64282 13.9783 5.52034 13.9783 6.603C13.9783 7.68531 14.8519 8.56282 15.9288 8.56282C16.2008 8.56282 16.4597 8.50665 16.6951 8.40567C16.3431 8.25376 16.0433 8.00202 15.8328 7.68158C15.6223 7.36114 15.5103 6.98604 15.5107 6.60265Z" fill="#C1F7FF"/>
<path id="Vector_7" d="M24.4935 18.3926C24.3119 18.3926 24.1423 18.2796 24.0772 18.0979C23.0763 15.2908 20.6567 13.156 17.7632 12.526C17.5243 12.4741 17.3728 12.2373 17.4247 11.9976C17.4767 11.758 17.712 11.6054 17.9506 11.6574C19.54 12.0063 21.0136 12.7565 22.2308 13.8366C23.4425 14.911 24.364 16.2735 24.9099 17.7982C24.9337 17.8651 24.9412 17.9368 24.9317 18.0072C24.9222 18.0776 24.8959 18.1447 24.8552 18.2029C24.8144 18.2611 24.7603 18.3087 24.6974 18.3417C24.6345 18.3747 24.5646 18.3922 24.4935 18.3926ZM27.1531 23.2965C27.0847 23.2965 27.0171 23.2805 26.9559 23.2499C26.8947 23.2193 26.8415 23.1749 26.8004 23.1201C26.7133 23.0042 26.5028 22.9242 26.4363 22.9082C26.3238 22.8788 26.2273 22.8065 26.1674 22.7068C26.1076 22.6071 26.0892 22.4879 26.1163 22.3749C26.1433 22.2618 26.2136 22.1638 26.312 22.1019C26.4105 22.04 26.5292 22.0192 26.6429 22.0438C26.6998 22.0577 27.2093 22.1896 27.5058 22.5839C27.5553 22.6498 27.5856 22.7282 27.5932 22.8103C27.6008 22.8924 27.5854 22.9749 27.5489 23.0488C27.5123 23.1227 27.4559 23.185 27.3861 23.2287C27.3162 23.2724 27.2355 23.2959 27.1531 23.2965Z" fill="white"/>
<path id="Vector_8" d="M27.1722 20.8015C27.057 14.8207 22.2947 9.96418 16.3708 9.73271V8.96507C16.9199 8.85956 17.415 8.56597 17.7711 8.13481C18.1271 7.70366 18.3217 7.1619 18.3214 6.60276C18.3215 6.19662 18.2192 5.79701 18.0241 5.4408C17.9962 5.38983 17.9585 5.34487 17.9131 5.30853C17.8678 5.27218 17.8157 5.24515 17.7598 5.22899C17.704 5.21283 17.6455 5.20787 17.5877 5.21438C17.53 5.22089 17.4741 5.23875 17.4232 5.26694C17.3206 5.32436 17.2448 5.42007 17.2124 5.53318C17.18 5.64629 17.1937 5.76761 17.2504 5.87067C17.3731 6.09325 17.4375 6.34605 17.4375 6.60276C17.4375 7.43867 16.7608 8.11849 15.9288 8.11849C15.0968 8.11849 14.4202 7.43867 14.4202 6.60276C14.4202 5.76685 15.0968 5.08702 15.9285 5.08702C16.1344 5.08702 16.3338 5.12791 16.5212 5.20827C16.5746 5.23117 16.6321 5.24328 16.6902 5.2439C16.7484 5.24453 16.806 5.23366 16.86 5.21192C16.9139 5.19018 16.963 5.15799 17.0044 5.11722C17.0459 5.07644 17.0789 5.02788 17.1015 4.97431C17.1478 4.86614 17.1494 4.744 17.1058 4.63468C17.0622 4.52537 16.977 4.43781 16.8689 4.3912C16.5719 4.26343 16.2518 4.19785 15.9285 4.19849C14.6094 4.19849 13.536 5.27689 13.536 6.60276C13.5358 7.1619 13.7304 7.70364 14.0864 8.13483C14.4424 8.56601 14.9375 8.85971 15.4865 8.96542V9.73271C14.0254 9.78648 12.5894 10.1287 11.2611 10.7396C11.1543 10.7889 11.0714 10.8785 11.0305 10.9888C10.9896 11.0991 10.994 11.2211 11.0428 11.3281C11.0667 11.3811 11.1008 11.4288 11.1432 11.4686C11.1856 11.5084 11.2355 11.5394 11.2899 11.5598C11.3443 11.5802 11.4022 11.5897 11.4603 11.5876C11.5184 11.5856 11.5756 11.572 11.6284 11.5478C12.977 10.9276 14.4444 10.6082 15.9288 10.6116C21.5 10.6116 26.0579 15.0529 26.2812 20.5971C26.1599 20.5848 26.038 20.5786 25.916 20.5786H5.942C5.81862 20.5786 5.69702 20.585 5.57685 20.5971C5.64061 18.9397 6.10004 17.3217 6.91677 15.8781C7.7335 14.4345 8.88381 13.2074 10.2716 12.2991C10.3699 12.2344 10.4386 12.1334 10.4627 12.0182C10.4867 11.903 10.4642 11.783 10.4 11.6844C10.3684 11.6356 10.3275 11.5935 10.2796 11.5606C10.2317 11.5277 10.1777 11.5046 10.1208 11.4926C10.064 11.4806 10.0053 11.4799 9.94818 11.4907C9.89107 11.5015 9.83665 11.5234 9.78805 11.5553C6.65311 13.6118 4.75836 17.0557 4.68653 20.8015C3.97906 21.0628 3.36865 21.5346 2.93756 22.1534C2.50647 22.7722 2.27541 23.5083 2.27551 24.2625V26.1487C2.27551 26.3937 2.47356 26.5928 2.71782 26.5928H29.1402C29.3841 26.5928 29.5822 26.3937 29.5822 26.1487V24.2625C29.5822 22.6742 28.5767 21.3178 27.1722 20.8015ZM3.15978 25.7043V24.2625C3.15978 22.7208 4.40778 21.4671 5.942 21.4671H25.9157C27.2995 21.4671 28.4501 22.4872 28.6627 23.8184H25.184C24.9397 23.8184 24.742 24.0175 24.742 24.2625C24.742 24.5078 24.94 24.7069 25.184 24.7069H28.6983V25.7043H3.15978Z" fill="#075C68"/>
<path id="Vector_9" d="M23.6512 23.8184H10.2699C10.0256 23.8184 9.82757 24.0175 9.82757 24.2624C9.82757 24.5078 10.0256 24.7069 10.2699 24.7069H23.6509C23.8951 24.7069 24.0928 24.5078 24.0928 24.2624C24.093 24.2043 24.0817 24.1467 24.0596 24.0929C24.0375 24.0391 24.0051 23.9901 23.964 23.9489C23.923 23.9077 23.8743 23.8749 23.8206 23.8525C23.7669 23.8301 23.7094 23.8185 23.6512 23.8184ZM8.84837 23.8184H5.08233C4.83806 23.8184 4.64001 24.0175 4.64001 24.2624C4.64001 24.5078 4.83806 24.7069 5.08233 24.7069H8.84801C9.09228 24.7069 9.29033 24.5078 9.29033 24.2624C9.29033 24.0175 9.09264 23.8184 8.84837 23.8184Z" fill="#0A616F"/>
</g>
</svg>
