<svg width="28" height="28" viewBox="0 0 28 28" fill="none" xmlns="http://www.w3.org/2000/svg">
<g id="price-tag-svgrepo-com 1" clip-path="url(#clip0_313_1267)">
<g id="Group">
<path id="Vector" d="M10.6552 27.2954L0.942708 17.5829C0.942662 17.5829 0.942576 17.5828 0.942529 17.5827C0.669186 17.309 0.66953 16.8658 0.942532 16.5928L0.943978 16.5913L14.55 2.87305H24.8899V13.6925L11.6432 27.2974C11.3693 27.5687 10.9275 27.5678 10.6552 27.2954ZM18.2458 7.11881C18.2458 8.44329 19.3196 9.51711 20.6441 9.51711C21.9686 9.51711 23.0424 8.44329 23.0424 7.11881C23.0424 5.79433 21.9686 4.7205 20.6441 4.7205C19.3196 4.7205 18.2458 5.79433 18.2458 7.11881Z" fill="#C1F7FF" stroke="#075B4B"/>
<path id="Vector_2" d="M20.6441 3.32227C18.5475 3.32227 16.8475 5.0222 16.8475 7.11888C16.8475 9.21555 18.5475 10.9155 20.6441 10.9155C22.7408 10.9155 24.4408 9.21555 24.4408 7.11888C24.4408 5.0222 22.7408 3.32227 20.6441 3.32227ZM20.6441 9.01718C19.5958 9.01718 18.7458 8.16721 18.7458 7.11888C18.7458 6.07054 19.5958 5.22057 20.6441 5.22057C21.6925 5.22057 22.5424 6.07054 22.5424 7.11888C22.5424 8.16721 21.6925 9.01718 20.6441 9.01718Z" fill="#28685C"/>
<path id="Vector_3" d="M20.6441 7.59334C20.5226 7.59334 20.4011 7.54683 20.3086 7.45429C20.123 7.26873 20.123 6.9688 20.3086 6.78324L26.9527 0.139169C27.1382 -0.0463898 27.4382 -0.0463898 27.6237 0.139169C27.8093 0.324729 27.8093 0.624661 27.6237 0.81022L20.9797 7.45429C20.8871 7.54683 20.7656 7.59334 20.6441 7.59334Z" fill="#FDD7AD"/>
</g>
</g>
<defs>
<clipPath id="clip0_313_1267">
<rect width="28" height="28" fill="white"/>
</clipPath>
</defs>
</svg>
