<svg width="15" height="9" viewBox="0 0 15 9" fill="none" xmlns="http://www.w3.org/2000/svg">
<path id="Vector" fill-rule="evenodd" clip-rule="evenodd" d="M9.73144 7.13021C9.65315 7.20316 9.59035 7.29114 9.54679 7.38889C9.50324 7.48663 9.47982 7.59215 9.47793 7.69915C9.47605 7.80615 9.49573 7.91243 9.53581 8.01165C9.57589 8.11088 9.63554 8.20101 9.71121 8.27668C9.78688 8.35235 9.87702 8.41201 9.97624 8.45209C10.0755 8.49217 10.1817 8.51185 10.2887 8.50996C10.3957 8.50807 10.5013 8.48465 10.599 8.4411C10.6968 8.39754 10.7847 8.33475 10.8577 8.25646L14.3108 4.80333L14.875 4.24021L14.3119 3.67708L10.8588 0.223956C10.7085 0.0787269 10.5073 -0.00168952 10.2983 2.6923e-05C10.0894 0.00174337 9.88949 0.0854557 9.74167 0.233134C9.59385 0.380812 9.50995 0.580639 9.50804 0.789577C9.50612 0.998515 9.58635 1.19985 9.73144 1.35021L11.8246 3.44333H0.796875C0.585531 3.44333 0.382842 3.52729 0.233399 3.67673C0.0839563 3.82617 0 4.02886 0 4.24021C0 4.45155 0.0839563 4.65424 0.233399 4.80368C0.382842 4.95312 0.585531 5.03708 0.796875 5.03708H11.8246L9.73144 7.13021Z" fill="black"/>
</svg>
